<svg xmlns="http://www.w3.org/2000/svg" width="60" height="60"><defs><filter id="a" width="166.7%" height="166.7%" x="-33.3%" y="-33.3%" filterUnits="objectBoundingBox"><feOffset dy="2" in="SourceAlpha" result="shadowOffsetOuter1"/><feGaussianBlur in="shadowOffsetOuter1" result="shadowBlurOuter1" stdDeviation="3"/><feColorMatrix in="shadowBlurOuter1" result="shadowMatrixOuter1" values="0 0 0 0 1 0 0 0 0 0.717647059 0 0 0 0 0.0745098039 0 0 0 0.2 0"/><feMerge><feMergeNode in="shadowMatrixOuter1"/><feMergeNode in="SourceGraphic"/></feMerge></filter></defs><g fill="none" filter="url(#a)" transform="translate(5.896 4)"><rect width="47.411" height="47.411" fill="#FFCD00" rx="10.68"/><path fill="#00F" d="M23.964 43.564c.185.002.368-.042.533-.127.364-.21.836-.613 1.516-1.564l-7.243 1.779 5.194-.088zm-3.789-4.259c.347.126 1.476.523 2.106.95l.06.041 4.692-.073c0-.01.18-.315.282-.51.103-.194.12-.4 0-.52-.119-.122-.362-.155-.813-.155H20.2c-.05 0-.177 0-.198.094a.11.11 0 00.027.096.378.378 0 00.146.077zm9.435 1.185c-.104 0-6.974.11-7.08.114-.057 0-.074.014-.074.077 0 .498-.662.979-1.56 1.405-.946.452-2.136.901-2.753 1.129-.146.054-.418.148-.495.19-.078.042-.115.088-.094.15.02.064.09.095.326.032l.351-.1c1.188-.31 3.36-.853 5.476-1.382 2.19-.548 4.352-1.02 5.937-1.307.126-.023.228-.09.222-.184-.006-.094-.109-.127-.255-.123zM16.06 27.855v-15.83h-4.666v16.308a5.745 5.745 0 005.679 5.746h8.887v-4.232h-7.907a1.99 1.99 0 01-1.992-1.992z"/><path fill="#00F" d="M30.338 12.026h-8.887V27.12h4.51V16.249h3.397a1.99 1.99 0 011.99 1.99v15.84h4.669V17.77a5.745 5.745 0 00-5.679-5.745zM23.69 9.283c1.545 0 2.808-1.198 2.808-2.65 0-1.45-1.255-2.648-2.808-2.648-1.554 0-2.783 1.198-2.783 2.649 0 1.45 1.238 2.649 2.783 2.649z"/></g></svg>